<svg xmlns="http://www.w3.org/2000/svg">
<symbol id="facebook" viewBox="0 0 512 512">
<g>
	<g>
		<path d="M288,176v-64c0-17.664,14.336-32,32-32h32V0h-64c-53.024,0-96,42.976-96,96v80h-64v80h64v256h96V256h64l32-80H288z"/>
	</g>
</g>
<g>
</g>
<g>
</g>
<g>
</g>
<g>
</g>
<g>
</g>
<g>
</g>
<g>
</g>
<g>
</g>
<g>
</g>
<g>
</g>
<g>
</g>
<g>
</g>
<g>
</g>
<g>
</g>
<g>
</g>
</symbol>

<symbol id="twitter" viewBox="0 0 512 512">
<g>
	<g>
		<path d="M512,97.248c-19.04,8.352-39.328,13.888-60.48,16.576c21.76-12.992,38.368-33.408,46.176-58.016
			c-20.288,12.096-42.688,20.64-66.56,25.408C411.872,60.704,384.416,48,354.464,48c-58.112,0-104.896,47.168-104.896,104.992
			c0,8.32,0.704,16.32,2.432,23.936c-87.264-4.256-164.48-46.08-216.352-109.792c-9.056,15.712-14.368,33.696-14.368,53.056
			c0,36.352,18.72,68.576,46.624,87.232c-16.864-0.32-33.408-5.216-47.424-12.928c0,0.32,0,0.736,0,1.152
			c0,51.008,36.384,93.376,84.096,103.136c-8.544,2.336-17.856,3.456-27.52,3.456c-6.72,0-13.504-0.384-19.872-1.792
			c13.6,41.568,52.192,72.128,98.08,73.12c-35.712,27.936-81.056,44.768-130.144,44.768c-8.608,0-16.864-0.384-25.12-1.44
			C46.496,446.88,101.6,464,161.024,464c193.152,0,298.752-160,298.752-298.688c0-4.64-0.16-9.12-0.384-13.568
			C480.224,136.96,497.728,118.496,512,97.248z"/>
	</g>
</g>
<g>
</g>
<g>
</g>
<g>
</g>
<g>
</g>
<g>
</g>
<g>
</g>
<g>
</g>
<g>
</g>
<g>
</g>
<g>
</g>
<g>
</g>
<g>
</g>
<g>
</g>
<g>
</g>
<g>
</g>
</symbol>

<symbol id="insta" viewBox="0 0 512 512">
<g>
	<g>
		<path d="M352,0H160C71.648,0,0,71.648,0,160v192c0,88.352,71.648,160,160,160h192c88.352,0,160-71.648,160-160V160
			C512,71.648,440.352,0,352,0z M464,352c0,61.76-50.24,112-112,112H160c-61.76,0-112-50.24-112-112V160C48,98.24,98.24,48,160,48
			h192c61.76,0,112,50.24,112,112V352z"/>
	</g>
</g>
<g>
	<g>
		<path d="M256,128c-70.688,0-128,57.312-128,128s57.312,128,128,128s128-57.312,128-128S326.688,128,256,128z M256,336
			c-44.096,0-80-35.904-80-80c0-44.128,35.904-80,80-80s80,35.872,80,80C336,300.096,300.096,336,256,336z"/>
	</g>
</g>
<g>
	<g>
		<circle cx="393.6" cy="118.4" r="17.056"/>
	</g>
</g>
<g>
</g>
<g>
</g>
<g>
</g>
<g>
</g>
<g>
</g>
<g>
</g>
<g>
</g>
<g>
</g>
<g>
</g>
<g>
</g>
<g>
</g>
<g>
</g>
<g>
</g>
<g>
</g>
<g>
</g>
</symbol>
<symbol id="behance" viewBox="0 0 511.958 511.958">
<g>
	<g>
		<g>
			<path d="M210.624,240.619c10.624-5.344,18.656-11.296,24.16-17.728c9.792-11.584,14.624-26.944,14.624-45.984
				c0-18.528-4.832-34.368-14.496-47.648c-16.128-21.632-43.424-32.704-82.016-33.28H0v312.096h142.56
				c16.064,0,30.944-1.376,44.704-4.192c13.76-2.848,25.664-8.064,35.744-15.68c8.96-6.624,16.448-14.848,22.4-24.544
				c9.408-14.656,14.112-31.264,14.112-49.76c0-17.92-4.128-33.184-12.32-45.728C238.912,255.627,226.752,246.443,210.624,240.619z
				 M63.072,150.187h68.864c15.136,0,27.616,1.632,37.408,4.864c11.328,4.704,16.992,14.272,16.992,28.864
				c0,13.088-4.32,22.24-12.864,27.392c-8.608,5.152-19.776,7.744-33.472,7.744H63.072V150.187z M171.968,348.427
				c-7.616,3.68-18.336,5.504-32.064,5.504H63.072v-83.232h77.888c13.568,0.096,24.128,1.888,31.68,5.248
				c13.44,6.08,20.128,17.216,20.128,33.504C192.768,328.651,185.856,341.579,171.968,348.427z"/>
			<rect x="327.168" y="110.539" width="135.584" height="38.848"/>
			<path d="M509.856,263.851c-2.816-18.08-9.024-33.984-18.688-47.712c-10.592-15.552-24.032-26.944-40.384-34.144
				c-16.288-7.232-34.624-10.848-55.04-10.816c-34.272,0-62.112,10.72-83.648,32c-21.472,21.344-32.224,52.032-32.224,92.032
				c0,42.656,11.872,73.472,35.744,92.384c23.776,18.944,51.232,28.384,82.4,28.384c37.728,0,67.072-11.232,88.032-33.632
				c13.408-14.144,20.992-28.064,22.656-41.728H446.24c-3.616,6.752-7.808,12.032-12.608,15.872
				c-8.704,7.04-20.032,10.56-33.92,10.56c-13.216,0-24.416-2.912-33.76-8.704c-15.424-9.28-23.488-25.536-24.512-48.672h170.464
				C512.16,289.739,511.52,274.411,509.856,263.851z M342.976,269.835c2.24-15.008,7.68-26.912,16.32-35.712
				c8.64-8.768,20.864-13.184,36.512-13.216c14.432,0,26.496,4.128,36.32,12.416c9.696,8.352,15.168,20.48,16.288,36.512H342.976z"
				/>
		</g>
	</g>
</g>
<g>
</g>
<g>
</g>
<g>
</g>
<g>
</g>
<g>
</g>
<g>
</g>
<g>
</g>
<g>
</g>
<g>
</g>
<g>
</g>
<g>
</g>
<g>
</g>
<g><g>
	<path d="M48.875,0C21.883,0,0,21.882,0,48.875S21.883,97.75,48.875,97.75S97.75,75.868,97.75,48.875S75.867,0,48.875,0z
		 M54.499,65.109c-4.521,0-8.773-2.444-10.229-5.219c0,0-2.432,9.645-2.943,11.506c-1.813,6.58-7.146,13.162-7.561,13.701
		c-0.289,0.375-0.928,0.258-0.994-0.24c-0.113-0.838-1.475-9.139,0.127-15.909c0.801-3.4,5.383-22.814,5.383-22.814
		s-1.334-2.673-1.334-6.625c0-6.205,3.596-10.837,8.074-10.837c3.807,0,5.645,2.859,5.645,6.286c0,3.828-2.436,9.552-3.693,14.856
		c-1.051,4.441,2.225,8.064,6.605,8.064c7.933,0,13.272-10.188,13.272-22.261c0-9.174-6.176-16.044-17.418-16.044
		c-12.697,0-20.615,9.471-20.615,20.052c0,3.646,1.078,6.221,2.764,8.21c0.773,0.915,0.883,1.283,0.602,2.333
		c-0.203,0.771-0.66,2.625-0.854,3.358c-0.279,1.062-1.137,1.44-2.098,1.049c-5.846-2.387-8.572-8.793-8.572-15.994
		c0-11.893,10.029-26.154,29.922-26.154c15.985,0,26.506,11.566,26.506,23.984C77.089,52.839,67.956,65.109,54.499,65.109z"/>
</g>
<g>
</g>
<g>
</g>
<g>
</g>
<g>
</g>
<g>
</g>
<g>
</g>
<g>
</g>
<g>
</g>
<g>
</g>
<g>
</g>
<g>
</g>
<g>
</g>
<g>
</g>
<g>
</g>
<g>
</g>
</g>
<g>
</g>
<g>
</g>
</symbol>
<symbol id="pinterest" viewBox="0 0 97.75 97.75">
<g>
	<path d="M48.875,0C21.883,0,0,21.882,0,48.875S21.883,97.75,48.875,97.75S97.75,75.868,97.75,48.875S75.867,0,48.875,0z
		 M54.499,65.109c-4.521,0-8.773-2.444-10.229-5.219c0,0-2.432,9.645-2.943,11.506c-1.813,6.58-7.146,13.162-7.561,13.701
		c-0.289,0.375-0.928,0.258-0.994-0.24c-0.113-0.838-1.475-9.139,0.127-15.909c0.801-3.4,5.383-22.814,5.383-22.814
		s-1.334-2.673-1.334-6.625c0-6.205,3.596-10.837,8.074-10.837c3.807,0,5.645,2.859,5.645,6.286c0,3.828-2.436,9.552-3.693,14.856
		c-1.051,4.441,2.225,8.064,6.605,8.064c7.933,0,13.272-10.188,13.272-22.261c0-9.174-6.176-16.044-17.418-16.044
		c-12.697,0-20.615,9.471-20.615,20.052c0,3.646,1.078,6.221,2.764,8.21c0.773,0.915,0.883,1.283,0.602,2.333
		c-0.203,0.771-0.66,2.625-0.854,3.358c-0.279,1.062-1.137,1.44-2.098,1.049c-5.846-2.387-8.572-8.793-8.572-15.994
		c0-11.893,10.029-26.154,29.922-26.154c15.985,0,26.506,11.566,26.506,23.984C77.089,52.839,67.956,65.109,54.499,65.109z"/>
</g>
<g>
</g>
<g>
</g>
<g>
</g>
<g>
</g>
<g>
</g>
<g>
</g>
<g>
</g>
<g>
</g>
<g>
</g>
<g>
</g>
<g>
</g>
<g>
</g>
<g>
</g>
<g>
</g>
<g>
</g>
</symbol>
<symbol id="play" viewBox="0 0 494.942 494.942">
<g><path d="m35.353 0 424.236 247.471-424.236 247.471z"/></g>
</symbol>

</svg>
